<svg width="295" height="60" viewBox="0 0 295 60" fill="none" xmlns="http://www.w3.org/2000/svg">
<path d="M88.8851 0H144.78V52.7947H88.8851V0Z" fill="url(#paint0_linear_37_30)"/>
<path d="M144.743 9.4322H161.457L172.205 28.7553V52.7946H144.743V9.4322Z" fill="#9DAFEA"/>
<path d="M110.428 52.7948C110.428 56.7741 108.038 60 105.091 60C102.143 60 99.7534 56.7741 99.7534 52.7948C99.7534 48.8154 102.143 45.5895 105.091 45.5895C108.038 45.5895 110.428 48.8154 110.428 52.7948Z" fill="black"/>
<path d="M160.358 52.7948C160.358 56.7741 157.969 60 155.021 60C152.074 60 149.684 56.7741 149.684 52.7948C149.684 48.8154 152.074 45.5895 155.021 45.5895C157.969 45.5895 160.358 48.8154 160.358 52.7948Z" fill="black"/>
<path d="M150.731 19.342H156.526L163.538 29.9158H150.731V19.342Z" fill="#BC2626"/>
<path d="M3.76509 45.4926V43.9451H6.66131V35.8209L1.39019 19.9594H0V18.4119H5.73452L10.3105 33.5771L12.9171 18.4119H17.2904V19.9594H15.9292L11.0056 35.8209V43.9451H13.9019V45.4926H3.76509Z" fill="url(#paint1_linear_37_30)"/>
<path d="M18.8956 31.9909C18.8956 27.8901 19.7258 24.5115 21.3863 21.855C23.0661 19.1727 25.4507 17.8316 28.54 17.8316C31.6486 17.8316 34.0428 19.1598 35.7226 21.8163C37.4024 24.4728 38.2423 27.8643 38.2423 31.9909C38.2423 36.0917 37.4024 39.4703 35.7226 42.1268C34.0428 44.7575 31.6486 46.0729 28.54 46.0729C25.4507 46.0729 23.0661 44.7575 21.3863 42.1268C19.7258 39.4703 18.8956 36.0917 18.8956 31.9909ZM28.5689 19.6499C27.4298 19.6499 26.4644 20.2431 25.6727 21.4295C24.1474 23.6475 23.3847 27.168 23.3847 31.9909C23.3847 36.7881 24.1474 40.2828 25.6727 42.475C26.4837 43.6614 27.4491 44.2546 28.5689 44.2546C30.2294 44.2546 31.5038 43.0682 32.392 40.6954C33.2994 38.3226 33.7532 35.4211 33.7532 31.9909C33.7532 28.5349 33.2994 25.6205 32.392 23.2477C31.5038 20.8492 30.2294 19.6499 28.5689 19.6499Z" fill="url(#paint2_linear_37_30)"/>
<path d="M41.0684 19.9594V18.4119H47.4691L52.7402 41.5852L57.7217 18.4119H64.2961V19.9594H62.3267L63.3693 43.9451H65.107V45.4926H57.3452V43.9451H58.996L58.0982 24.7952L53.638 45.4926H49.2647L44.5439 24.8339L43.7329 43.9451H45.4127V45.4926H40.2575V43.9451H41.9952L43.0089 19.9594H41.0684Z" fill="url(#paint3_linear_37_30)"/>
<path d="M67.7195 19.9594V18.4119H76.1185V19.9594H74.0912V43.9451H76.1185V45.4926H67.7195V43.9451H69.7469V19.9594H67.7195Z" fill="url(#paint4_linear_37_30)"/>
<path d="M186.681 45.4926V43.9451H188.129L193.632 33.0741L188.506 19.9594H186.971V18.4119H192.734L196.557 28.1609L199.946 18.4119H204.406V19.9594H202.958L197.542 30.6756L201.887 41.7013C202.138 42.3718 202.379 42.8361 202.611 43.094C202.862 43.3261 203.161 43.4422 203.508 43.4422C204.165 43.4422 204.773 43.0682 205.333 42.3202L205.97 43.2487C204.773 45.1315 203.277 46.0729 201.481 46.0729C200.574 46.0729 199.811 45.8794 199.193 45.4926C198.575 45.0799 198.064 44.3448 197.658 43.2874L194.588 35.5114L191.142 45.4926H186.681Z" fill="url(#paint5_linear_37_30)"/>
<path d="M207.861 19.9594V18.4119H214.233C218.983 18.4119 221.956 19.9336 223.153 22.9769C223.636 24.1633 223.877 25.6076 223.877 27.3098C223.877 29.012 223.636 30.4563 223.153 31.6427C222.69 32.8291 222.004 33.7447 221.097 34.3895C219.398 35.6017 217.11 36.2078 214.233 36.2078H213.943V43.9451H216.26V45.4926H207.861V43.9451H209.599V19.9594H207.861ZM214.233 19.9594H213.943V34.6603H214.233C215.758 34.6603 217.023 34.0155 218.027 32.726C219.031 31.4364 219.533 29.631 219.533 27.3098C219.533 24.9886 219.031 23.1832 218.027 21.8937C217.023 20.6041 215.758 19.9594 214.233 19.9594Z" fill="url(#paint6_linear_37_30)"/>
<path d="M226.924 19.9594V18.4119H233.296C237.988 18.4119 240.961 19.8562 242.216 22.7448C242.699 23.8796 242.94 25.2594 242.94 26.8843C242.94 30.6498 241.338 33.1773 238.133 34.4669C239.349 35.0085 240.16 36.1304 240.565 37.8326L241.434 41.7013C241.569 42.346 241.743 42.7974 241.956 43.0553C242.168 43.3132 242.525 43.4422 243.027 43.4422C243.529 43.4422 244.118 43.0682 244.794 42.3202L245.315 43.2487C243.77 45.1315 242.129 46.0729 240.392 46.0729C239.503 46.0729 238.789 45.8665 238.248 45.4539C237.708 45.0412 237.322 44.3191 237.09 43.2874L235.729 37.3297C235.555 36.5817 235.285 36.0659 234.918 35.7822C234.551 35.4985 233.914 35.3438 233.006 35.318V43.9451H235.323V45.4926H226.924V43.9451H228.662V19.9594H226.924ZM233.296 19.9594H233.006V33.7705H233.296C234.821 33.7705 236.086 33.1773 237.09 31.9909C238.094 30.7787 238.596 29.0765 238.596 26.8843C238.596 24.692 238.094 22.9898 237.09 21.7776C236.086 20.5655 234.821 19.9594 233.296 19.9594Z" fill="url(#paint7_linear_37_30)"/>
<path d="M260.066 45.4926H247.062V43.9451H248.8V19.9594H247.062V18.4119H259.487C259.911 18.4119 260.22 18.4377 260.413 18.4893C260.626 18.5151 260.819 18.6569 260.993 18.9148C261.167 19.1469 261.253 19.5209 261.253 20.0367L260.471 26.5361H259.342L258.763 22.7061C258.589 21.5455 258.261 20.7976 257.778 20.4623C257.315 20.127 256.446 19.9594 255.171 19.9594H253.144V33.1902H259.805V34.9311H253.144V43.9451H255.751C257.006 43.9451 257.865 43.7774 258.328 43.4422C258.811 43.1069 259.149 42.3589 259.342 41.1983L259.921 37.7552H261.051L261.833 43.8677C261.833 44.3835 261.746 44.7704 261.572 45.0283C261.398 45.2604 261.205 45.4023 260.993 45.4539C260.8 45.4797 260.491 45.4926 260.066 45.4926Z" fill="url(#paint8_linear_37_30)"/>
<path d="M267.303 40.502C267.303 41.5078 267.67 42.3847 268.404 43.1327C269.137 43.8806 270.083 44.2546 271.242 44.2546C272.4 44.2546 273.318 43.8806 273.993 43.1327C274.669 42.3847 275.007 41.3918 275.007 40.1538C275.007 38.5805 274.302 37.2781 272.893 36.2464L268.606 33.1902C266.135 31.4106 264.899 28.8702 264.899 25.5689C264.899 23.4541 265.478 21.6358 266.637 20.1141C267.795 18.5924 269.524 17.8316 271.821 17.8316C273.366 17.8316 274.833 18.2443 276.223 19.0696C277.614 19.8949 278.309 20.8749 278.309 22.0098C278.309 22.4482 278.203 22.9511 277.99 23.5185L276.6 27.0777L275.586 26.6522V23.4025C275.586 22.2419 275.2 21.3263 274.428 20.6557C273.675 19.9851 272.767 19.6499 271.705 19.6499C270.663 19.6499 269.861 20.0625 269.301 20.8878C268.742 21.7132 268.462 22.6545 268.462 23.712C268.462 25.8268 269.176 27.3872 270.605 28.393L274.283 30.9851C277.083 32.9452 278.482 35.5243 278.482 38.7224C278.482 41.1468 277.797 42.9779 276.426 44.2159C275.075 45.4539 273.356 46.0729 271.271 46.0729C269.707 46.0729 268.201 45.6602 266.753 44.8349C265.305 44.0096 264.581 43.0295 264.581 41.8947C264.581 41.4562 264.687 40.9533 264.899 40.3859L266.289 36.8267L267.303 37.2523V40.502Z" fill="url(#paint9_linear_37_30)"/>
<path d="M283.821 40.502C283.821 41.5078 284.187 42.3847 284.921 43.1327C285.655 43.8806 286.601 44.2546 287.759 44.2546C288.918 44.2546 289.835 43.8806 290.511 43.1327C291.187 42.3847 291.525 41.3918 291.525 40.1538C291.525 38.5805 290.82 37.2781 289.41 36.2464L285.124 33.1902C282.652 31.4106 281.417 28.8702 281.417 25.5689C281.417 23.4541 281.996 21.6358 283.154 20.1141C284.313 18.5924 286.041 17.8316 288.339 17.8316C289.883 17.8316 291.351 18.2443 292.741 19.0696C294.131 19.8949 294.826 20.8749 294.826 22.0098C294.826 22.4482 294.72 22.9511 294.508 23.5185L293.117 27.0777L292.104 26.6522V23.4025C292.104 22.2419 291.718 21.3263 290.945 20.6557C290.192 19.9851 289.285 19.6499 288.223 19.6499C287.18 19.6499 286.379 20.0625 285.819 20.8878C285.259 21.7132 284.979 22.6545 284.979 23.712C284.979 25.8268 285.693 27.3872 287.122 28.393L290.8 30.9851C293.6 32.9452 295 35.5243 295 38.7224C295 41.1468 294.315 42.9779 292.944 44.2159C291.592 45.4539 289.874 46.0729 287.788 46.0729C286.224 46.0729 284.718 45.6602 283.27 44.8349C281.822 44.0096 281.098 43.0295 281.098 41.8947C281.098 41.4562 281.204 40.9533 281.417 40.3859L282.807 36.8267L283.821 37.2523V40.502Z" fill="url(#paint10_linear_37_30)"/>
<defs>
<linearGradient id="paint0_linear_37_30" x1="295" y1="30" x2="0" y2="30" gradientUnits="userSpaceOnUse">
<stop stop-color="#2C4DBA"/>
<stop offset="1" stop-color="#BC2626"/>
</linearGradient>
<linearGradient id="paint1_linear_37_30" x1="295" y1="30" x2="0" y2="30" gradientUnits="userSpaceOnUse">
<stop stop-color="#2C4DBA"/>
<stop offset="1" stop-color="#BC2626"/>
</linearGradient>
<linearGradient id="paint2_linear_37_30" x1="295" y1="30" x2="0" y2="30" gradientUnits="userSpaceOnUse">
<stop stop-color="#2C4DBA"/>
<stop offset="1" stop-color="#BC2626"/>
</linearGradient>
<linearGradient id="paint3_linear_37_30" x1="295" y1="30" x2="0" y2="30" gradientUnits="userSpaceOnUse">
<stop stop-color="#2C4DBA"/>
<stop offset="1" stop-color="#BC2626"/>
</linearGradient>
<linearGradient id="paint4_linear_37_30" x1="295" y1="30" x2="0" y2="30" gradientUnits="userSpaceOnUse">
<stop stop-color="#2C4DBA"/>
<stop offset="1" stop-color="#BC2626"/>
</linearGradient>
<linearGradient id="paint5_linear_37_30" x1="185.479" y1="30.9851" x2="296.501" y2="30.9851" gradientUnits="userSpaceOnUse">
<stop stop-color="#BC2626"/>
<stop offset="1" stop-color="#2C4DBA"/>
</linearGradient>
<linearGradient id="paint6_linear_37_30" x1="185.479" y1="30.9851" x2="296.501" y2="30.9851" gradientUnits="userSpaceOnUse">
<stop stop-color="#BC2626"/>
<stop offset="1" stop-color="#2C4DBA"/>
</linearGradient>
<linearGradient id="paint7_linear_37_30" x1="185.479" y1="30.9851" x2="296.501" y2="30.9851" gradientUnits="userSpaceOnUse">
<stop stop-color="#BC2626"/>
<stop offset="1" stop-color="#2C4DBA"/>
</linearGradient>
<linearGradient id="paint8_linear_37_30" x1="185.479" y1="30.9851" x2="296.501" y2="30.9851" gradientUnits="userSpaceOnUse">
<stop stop-color="#BC2626"/>
<stop offset="1" stop-color="#2C4DBA"/>
</linearGradient>
<linearGradient id="paint9_linear_37_30" x1="185.479" y1="30.9851" x2="296.501" y2="30.9851" gradientUnits="userSpaceOnUse">
<stop stop-color="#BC2626"/>
<stop offset="1" stop-color="#2C4DBA"/>
</linearGradient>
<linearGradient id="paint10_linear_37_30" x1="185.479" y1="30.9851" x2="296.501" y2="30.9851" gradientUnits="userSpaceOnUse">
<stop stop-color="#BC2626"/>
<stop offset="1" stop-color="#2C4DBA"/>
</linearGradient>
</defs>
</svg>
